<?xml version="1.0" encoding="UTF-8" standalone="no"?>
<!DOCTYPE svg PUBLIC "-//W3C//DTD SVG 1.1//EN" "http://www.w3.org/Graphics/SVG/1.1/DTD/svg11.dtd">
<svg width="100%" height="100%" viewBox="0 0 43 64" version="1.1" xmlns="http://www.w3.org/2000/svg" xmlns:xlink="http://www.w3.org/1999/xlink" xml:space="preserve" style="fill-rule:evenodd;clip-rule:evenodd;stroke-linejoin:round;stroke-miterlimit:1.41421;">
    <g transform="matrix(0.499251,0,0,0.499251,-307.978,-38.1664)">
        <path d="M629.812,156.941L695.599,136.788C700.261,135.361 702.64,131.099 700.901,127.271C699.163,123.444 693.967,121.494 689.304,122.919L623.519,143.07C618.856,144.497 616.477,148.761 618.216,152.588C619.952,156.416 625.15,158.366 629.812,156.941M634.04,164.479L687.017,148.254L687.017,164.479L634.04,164.479ZM681.021,180.159L681.021,192.257L673.094,192.257L673.094,203.796L646.025,203.796L646.025,192.257L638.096,192.257L638.096,180.166C634.393,178.023 632.414,175.544 632.134,172.713L686.981,172.713C686.701,175.534 684.717,178.013 681.021,180.159M679.294,116.915L628.898,132.362C616.672,136.099 613.086,121.394 623.788,118.125L670.441,103.833L670.441,95.55C670.441,88.572 649.214,88.582 649.214,95.55L649.214,101.5L632.369,106.66L632.369,90.464C632.369,86.854 635.02,83.799 640.366,81.259C651.511,75.969 668.139,75.966 679.279,81.259C684.355,83.677 687.014,86.561 687.267,89.931L687.267,104.352C687.267,110.733 686.184,114.806 679.294,116.915"/>
    </g>
</svg>
