<?xml version="1.0" encoding="UTF-8"?>
<svg width="18px" height="18px" viewBox="0 0 18 18" version="1.1" xmlns="http://www.w3.org/2000/svg" xmlns:xlink="http://www.w3.org/1999/xlink">
    <!-- Generator: Sketch 55.2 (78181) - https://sketchapp.com -->
    <title>Shape</title>
    <desc>Created with Sketch.</desc>
    <g id="Design" stroke="none" stroke-width="1" fill="none" fill-rule="evenodd">
        <g id="81-mini-Essential-Icons" transform="translate(-496.000000, -314.000000)" fill="#000000" fill-rule="nonzero">
            <g id="icon-" transform="translate(481.000000, 299.000000)">
                <path d="M29.3076923,29.3076923 L29.3076923,30.5934066 C29.3076923,31.9225314 28.2302237,33 26.9010989,33 L18.4615385,33 C16.5497836,33 15,31.4502164 15,29.5384615 L15,21.0989011 C15,19.7697763 16.0774686,18.6923077 17.4065934,18.6923077 L18.6923077,18.6923077 L18.6923077,17.5384615 C18.6923077,16.1365079 19.8288156,15 21.2307692,15 L30.4615385,15 C31.8634921,15 33,16.1365079 33,17.5384615 L33,26.7692308 C33,28.1711844 31.8634921,29.3076923 30.4615385,29.3076923 L29.3076923,29.3076923 Z M27.9230769,29.3076923 L21.2307692,29.3076923 C19.8288156,29.3076923 18.6923077,28.1711844 18.6923077,26.7692308 L18.6923077,20.0769231 L17.4065934,20.0769231 C16.8421705,20.0769231 16.3846154,20.5344782 16.3846154,21.0989011 L16.3846154,29.5384615 C16.3846154,30.6855145 17.3144855,31.6153846 18.4615385,31.6153846 L26.9010989,31.6153846 C27.4655218,31.6153846 27.9230769,31.1578295 27.9230769,30.5934066 L27.9230769,29.3076923 Z M26.8270529,22.1556743 L28.2956593,23.6242807 C28.5660223,23.8946437 28.5660223,24.3329887 28.2956593,24.6033516 C28.0252964,24.8737146 27.5869514,24.8737146 27.3165884,24.6033516 L25.847982,23.1347452 L24.3793756,24.6033516 C24.1090127,24.8737146 23.6706677,24.8737146 23.4003047,24.6033516 C23.1299417,24.3329887 23.1299417,23.8946437 23.4003047,23.6242807 L24.8689111,22.1556743 L23.4003047,20.6870679 C23.1299417,20.416705 23.1299417,19.97836 23.4003047,19.707997 C23.6706677,19.437634 24.1090127,19.437634 24.3793756,19.707997 L25.847982,21.1766034 L27.3165884,19.707997 C27.5869514,19.437634 28.0252964,19.437634 28.2956593,19.707997 C28.5660223,19.97836 28.5660223,20.416705 28.2956593,20.6870679 L26.8270529,22.1556743 Z M21.2307692,16.3846154 C20.5935176,16.3846154 20.0769231,16.9012099 20.0769231,17.5384615 L20.0769231,26.7692308 C20.0769231,27.4064824 20.5935176,27.9230769 21.2307692,27.9230769 L30.4615385,27.9230769 C31.0987901,27.9230769 31.6153846,27.4064824 31.6153846,26.7692308 L31.6153846,17.5384615 C31.6153846,16.9012099 31.0987901,16.3846154 30.4615385,16.3846154 L21.2307692,16.3846154 Z" id="Shape"></path>
            </g>
        </g>
    </g>
</svg>