<?xml version="1.0" encoding="UTF-8"?>
<svg width="25px" height="24px" viewBox="0 0 25 24" version="1.1" xmlns="http://www.w3.org/2000/svg" xmlns:xlink="http://www.w3.org/1999/xlink">
    <!-- Generator: Sketch 50.2 (55047) - http://www.bohemiancoding.com/sketch -->
    <title>Group</title>
    <desc>Created with Sketch.</desc>
    <defs></defs>
    <g id="Page-1" stroke="none" stroke-width="1" fill="none" fill-rule="evenodd">
        <g id="Group">
            <polygon id="Stroke-5116" stroke="#000000" stroke-linecap="round" stroke-linejoin="round" points="23.513 23.5 0.513 23.5 0.513 18.5 23.513 18.5"></polygon>
            <polygon id="Stroke-5117" stroke="#000000" stroke-linecap="round" stroke-linejoin="round" points="20.5127 12.5 3.5127 12.5 0.5127 18.5 23.5127 18.5"></polygon>
            <polyline id="Stroke-5118" stroke="#000000" stroke-linecap="round" stroke-linejoin="round" points="8.5127 21.5 8.5127 20.5 14.5127 20.5 14.5127 21.5"></polyline>
            <polygon id="Fill-5119" fill="#000000" points="6.513 16 5.513 16 5.513 17 6.513 17"></polygon>
            <polygon id="Fill-5120" fill="#000000" points="9.513 16 8.513 16 8.513 17 9.513 17"></polygon>
            <polygon id="Fill-5121" fill="#000000" points="12.513 16 11.513 16 11.513 17 12.513 17"></polygon>
            <polygon id="Fill-5122" fill="#000000" points="15.513 16 14.513 16 14.513 17 15.513 17"></polygon>
            <polygon id="Fill-5123" fill="#000000" points="18.513 16 17.513 16 17.513 17 18.513 17"></polygon>
            <polygon id="Fill-5124" fill="#000000" points="17.013 14.5 16.013 14.5 16.013 15.5 17.013 15.5"></polygon>
            <polygon id="Fill-5125" fill="#000000" points="14.013 14.5 13.013 14.5 13.013 15.5 14.013 15.5"></polygon>
            <polygon id="Fill-5126" fill="#000000" points="11.013 14.5 10.013 14.5 10.013 15.5 11.013 15.5"></polygon>
            <polygon id="Fill-5127" fill="#000000" points="8.013 14.5 7.013 14.5 7.013 15.5 8.013 15.5"></polygon>
            <polygon id="Stroke-5128" stroke="#000000" stroke-linecap="round" stroke-linejoin="round" points="20.513 12.5 3.513 12.5 3.513 6.5 20.513 6.5"></polygon>
            <polygon id="Stroke-5129" stroke="#000000" stroke-linecap="round" stroke-linejoin="round" points="11.013 10.5 5.513 10.5 5.513 8.5 11.013 8.5"></polygon>
            <path d="M14.0127,9.5 L18.5127,9.5" id="Stroke-5130" stroke="#000000" stroke-linecap="round" stroke-linejoin="round"></path>
            <polygon id="Stroke-5131" stroke="#000000" stroke-linecap="round" stroke-linejoin="round" points="9.5127 2.5 5.5127 3.5 5.5127 6.5 9.5127 6.5"></polygon>
            <path d="M20.5127,2.5 C20.5127,3.05 20.0637,3.5 19.5127,3.5 L15.5127,3.5 C14.9627,3.5 14.5127,3.05 14.5127,2.5 L14.5127,1.5 C14.5127,0.951 14.9627,0.5 15.5127,0.5 L19.5127,0.5 C20.0637,0.5 20.5127,0.951 20.5127,1.5 L20.5127,2.5 L20.5127,2.5 Z" id="Stroke-5132" stroke="#000000" stroke-linecap="round" stroke-linejoin="round"></path>
            <path d="M17.5127,3.5 L17.5127,6.5" id="Stroke-5133" stroke="#000000" stroke-linecap="round" stroke-linejoin="round"></path>
        </g>
    </g>
</svg>