<?xml version="1.0" encoding="UTF-8"?>
<svg width="18px" height="18px" viewBox="0 0 18 18" version="1.1" xmlns="http://www.w3.org/2000/svg" xmlns:xlink="http://www.w3.org/1999/xlink">
    <!-- Generator: Sketch 55.2 (78181) - https://sketchapp.com -->
    <title>Shape</title>
    <desc>Created with Sketch.</desc>
    <g id="Design" stroke="none" stroke-width="1" fill="none" fill-rule="evenodd">
        <g id="81-mini-Essential-Icons" transform="translate(-438.000000, -314.000000)" fill="#000000" fill-rule="nonzero">
            <g id="icon-" transform="translate(423.000000, 299.000000)">
                <path d="M29.3076923,29.3076923 L29.3076923,30.5934066 C29.3076923,31.9225314 28.2302237,33 26.9010989,33 L18.4615385,33 C16.5497836,33 15,31.4502164 15,29.5384615 L15,21.0989011 C15,19.7697763 16.0774686,18.6923077 17.4065934,18.6923077 L18.6923077,18.6923077 L18.6923077,17.5384615 C18.6923077,16.1365079 19.8288156,15 21.2307692,15 L30.4615385,15 C31.8634921,15 33,16.1365079 33,17.5384615 L33,26.7692308 C33,28.1711844 31.8634921,29.3076923 30.4615385,29.3076923 L29.3076923,29.3076923 Z M27.9230769,29.3076923 L21.2307692,29.3076923 C19.8288156,29.3076923 18.6923077,28.1711844 18.6923077,26.7692308 L18.6923077,20.0769231 L17.4065934,20.0769231 C16.8421705,20.0769231 16.3846154,20.5344782 16.3846154,21.0989011 L16.3846154,29.5384615 C16.3846154,30.6855145 17.3144855,31.6153846 18.4615385,31.6153846 L26.9010989,31.6153846 C27.4655218,31.6153846 27.9230769,31.1578295 27.9230769,30.5934066 L27.9230769,29.3076923 Z M26.5384615,21.4615385 L28.1538462,21.4615385 C28.5361971,21.4615385 28.8461538,21.7714952 28.8461538,22.1538462 C28.8461538,22.5361971 28.5361971,22.8461538 28.1538462,22.8461538 L26.5384615,22.8461538 L26.5384615,24.4615385 C26.5384615,24.8438894 26.2285048,25.1538462 25.8461538,25.1538462 C25.4638029,25.1538462 25.1538462,24.8438894 25.1538462,24.4615385 L25.1538462,22.8461538 L23.5384615,22.8461538 C23.1561106,22.8461538 22.8461538,22.5361971 22.8461538,22.1538462 C22.8461538,21.7714952 23.1561106,21.4615385 23.5384615,21.4615385 L25.1538462,21.4615385 L25.1538462,19.8461538 C25.1538462,19.4638029 25.4638029,19.1538462 25.8461538,19.1538462 C26.2285048,19.1538462 26.5384615,19.4638029 26.5384615,19.8461538 L26.5384615,21.4615385 Z M21.2307692,16.3846154 C20.5935176,16.3846154 20.0769231,16.9012099 20.0769231,17.5384615 L20.0769231,26.7692308 C20.0769231,27.4064824 20.5935176,27.9230769 21.2307692,27.9230769 L30.4615385,27.9230769 C31.0987901,27.9230769 31.6153846,27.4064824 31.6153846,26.7692308 L31.6153846,17.5384615 C31.6153846,16.9012099 31.0987901,16.3846154 30.4615385,16.3846154 L21.2307692,16.3846154 Z" id="Shape"></path>
            </g>
        </g>
    </g>
</svg>