<?xml version="1.0" encoding="UTF-8"?>
<svg width="18px" height="9px" viewBox="0 0 18 9" version="1.1" xmlns="http://www.w3.org/2000/svg" xmlns:xlink="http://www.w3.org/1999/xlink">
    <!-- Generator: Sketch 55.2 (78181) - https://sketchapp.com -->
    <title>Fill 919</title>
    <desc>Created with Sketch.</desc>
    <g id="Design" stroke="none" stroke-width="1" fill="none" fill-rule="evenodd">
        <g id="81-mini-Essential-Icons" transform="translate(-380.000000, -550.000000)" fill="#000000">
            <g id="icon-" transform="translate(365.000000, 531.000000)">
                <path d="M17.4699118,19.2193727 C17.7631587,18.9268758 18.2371538,18.9268758 18.5304007,19.2193727 L20.7803773,21.4693493 C21.0736242,21.7618462 21.0736242,22.2418412 20.7803773,22.5343382 C20.4871303,22.8268351 20.0131353,22.8268351 19.7198883,22.5343382 L18.7501484,21.5593483 L18.7501484,27.251789 C18.7501484,27.6642847 18.4141519,28.0017812 18.0001562,28.0017812 C17.5861606,28.0017812 17.2501641,27.6642847 17.2501641,27.251789 L17.2501641,21.5593483 L16.2804242,22.5343382 C15.9871772,22.8268351 15.5131822,22.8268351 15.2199352,22.5343382 C14.9266883,22.2418412 14.9266883,21.7618462 15.2199352,21.4693493 L17.4699118,19.2193727 Z M32.2500078,20.5018594 L23.2501016,20.5018594 C22.8361059,20.5018594 22.5001094,20.1643629 22.5001094,19.7518672 C22.5001094,19.3393715 22.8361059,19.001875 23.2501016,19.001875 L32.2500078,19.001875 C32.6640035,19.001875 33,19.3393715 33,19.7518672 C33,20.1643629 32.6640035,20.5018594 32.2500078,20.5018594 Z M22.5001094,23.5018281 C22.5001094,23.0893324 22.8361059,22.7518359 23.2501016,22.7518359 L29.2500391,22.7518359 C29.6640347,22.7518359 30.0000312,23.0893324 30.0000312,23.5018281 C30.0000312,23.9143238 29.6640347,24.2518203 29.2500391,24.2518203 L23.2501016,24.2518203 C22.8361059,24.2518203 22.5001094,23.9143238 22.5001094,23.5018281 Z M22.5001094,27.251789 C22.5001094,26.8392933 22.8361059,26.5017969 23.2501016,26.5017969 L29.2500391,26.5017969 C29.6640347,26.5017969 30.0000312,26.8392933 30.0000312,27.251789 C30.0000312,27.6642847 29.6640347,28.0017812 29.2500391,28.0017812 L23.2501016,28.0017812 C22.8361059,28.0017812 22.5001094,27.6642847 22.5001094,27.251789 L22.5001094,27.251789 Z" id="Fill-919"></path>
            </g>
        </g>
    </g>
</svg>