<?xml version="1.0" encoding="UTF-8"?>
<svg width="18px" height="9px" viewBox="0 0 18 9" version="1.1" xmlns="http://www.w3.org/2000/svg" xmlns:xlink="http://www.w3.org/1999/xlink">
    <!-- Generator: Sketch 55.2 (78181) - https://sketchapp.com -->
    <title>Fill 918</title>
    <desc>Created with Sketch.</desc>
    <g id="Design" stroke="none" stroke-width="1" fill="none" fill-rule="evenodd">
        <g id="81-mini-Essential-Icons" transform="translate(-438.000000, -550.000000)" fill="#000000">
            <g id="icon-" transform="translate(423.000000, 531.000000)">
                <path d="M18.0001562,19 C18.4141519,19 18.7501484,19.3374965 18.7501484,19.7499922 L18.7501484,25.4424329 L19.7198883,24.467443 C20.0131353,24.1749461 20.4871303,24.1749461 20.7803773,24.467443 C21.0736242,24.75994 21.0736242,25.239935 20.7803773,25.532432 L18.5304007,27.7824085 C18.2371538,28.0749055 17.7631587,28.0749055 17.4699118,27.7824085 L15.2199352,25.532432 C14.9266883,25.239935 14.9266883,24.75994 15.2199352,24.467443 C15.5131822,24.1749461 15.9871772,24.1749461 16.2804242,24.467443 L17.2501641,25.4424329 L17.2501641,19.7499922 C17.2501641,19.3374965 17.5861606,19 18.0001562,19 Z M22.5001094,19.7499922 C22.5001094,19.3374965 22.8361059,19 23.2501016,19 L29.2500391,19 C29.6640347,19 30.0000312,19.3374965 30.0000312,19.7499922 C30.0000312,20.1624879 29.6640347,20.4999844 29.2500391,20.4999844 L23.2501016,20.4999844 C22.8361059,20.4999844 22.5001094,20.1624879 22.5001094,19.7499922 Z M22.5001094,23.4999531 C22.5001094,23.0874574 22.8361059,22.7499609 23.2501016,22.7499609 L29.2500391,22.7499609 C29.6640347,22.7499609 30.0000312,23.0874574 30.0000312,23.4999531 C30.0000312,23.9124488 29.6640347,24.2499453 29.2500391,24.2499453 L23.2501016,24.2499453 C22.8361059,24.2499453 22.5001094,23.9124488 22.5001094,23.4999531 Z M22.5001094,27.2499141 C22.5001094,26.8374184 22.8361059,26.4999219 23.2501016,26.4999219 L32.2500078,26.4999219 C32.6640035,26.4999219 33,26.8374184 33,27.2499141 C33,27.6624098 32.6640035,27.9999063 32.2500078,27.9999063 L23.2501016,27.9999063 C22.8361059,27.9999063 22.5001094,27.6624098 22.5001094,27.2499141 L22.5001094,27.2499141 Z" id="Fill-918"></path>
            </g>
        </g>
    </g>
</svg>