<?xml version="1.0" encoding="UTF-8" standalone="no"?>
<!DOCTYPE svg PUBLIC "-//W3C//DTD SVG 1.1//EN" "http://www.w3.org/Graphics/SVG/1.1/DTD/svg11.dtd">
<svg width="100%" height="100%" viewBox="0 0 64 56" version="1.1" xmlns="http://www.w3.org/2000/svg" xmlns:xlink="http://www.w3.org/1999/xlink" xml:space="preserve" style="fill-rule:evenodd;clip-rule:evenodd;stroke-linejoin:round;stroke-miterlimit:1.41421;">
    <g transform="matrix(0.127087,0,0,0.127087,0.0847849,-3.9154)">
        <path d="M34.074,190.021L34.074,196.667C47.089,201.496 66.587,206.125 93.84,206.125C112.793,206.125 128.026,203.189 139.262,199.852L139.262,192.25C127.529,195.377 111.206,197.758 88.466,197.758C64.167,197.757 46.601,194.324 34.074,190.021Z" style="fill-rule:nonzero;"/>
        <path d="M491.927,247.711C488.303,248.734 483.77,249.768 477.707,251.135C472.037,252.416 464.932,254.023 455.943,256.194C450.759,257.447 443.875,259.168 435.699,261.271L435.699,265.89C435.584,268.157 435.948,274.037 438.902,277.145C440.346,278.666 442.326,279.402 444.984,279.402C446.389,279.402 447.977,279.201 449.708,278.781C457.272,276.945 463.526,275.663 468.814,274.593C480.069,272.307 486.265,271.035 490.884,267.344C496.124,263.156 493.351,254.129 493.322,254.043L491.927,247.711Z" style="fill-rule:nonzero;"/>
        <path d="M171.994,407.759C171.793,413.286 171.927,416.882 171.927,417.034L172.013,418.67L171.086,420.009C170.445,420.946 154.6,442.796 93.046,442.796C31.702,442.796 7.452,413.564 6.438,412.32L6.323,412.176C3.024,416.604 0.213,423.546 0.002,434.514C-0.084,438.817 1.637,441.801 5.233,445.473C21.824,462.351 71.166,466.702 87.26,466.702L89.488,466.702C144.214,466.702 176.975,454.128 184.262,428.634C185.467,424.407 185.027,421.051 182.914,417.446C180.61,413.488 176.469,410.303 171.994,407.759Z" style="fill-rule:nonzero;"/>
        <path d="M500.112,204.824C499.385,198.484 498.438,190.757 489.995,185.536C489.975,185.641 489.967,185.765 489.937,185.87C484.535,208.753 380.074,229.016 213.285,254.28C197.105,256.738 184.253,258.689 176.527,260.018C170.187,261.098 164.363,261.643 159.075,261.643C149.532,261.643 141.738,259.865 135.733,256.327C133.782,255.18 132.004,253.85 130.435,252.32C128.608,250.551 127.298,248.658 126.199,246.764C121.523,238.684 122.508,230.383 122.565,229.962C122.938,227.352 125.3,225.564 127.968,225.899C130.56,226.272 132.386,228.672 132.032,231.273C131.994,231.617 131.047,239.698 137.177,245.559C137.645,246.008 138.21,246.371 138.736,246.774C138.908,246.908 139.07,247.042 139.243,247.175C141.786,248.963 144.999,250.264 148.805,251.067C155.652,252.511 164.401,252.406 174.891,250.599C182.656,249.269 195.575,247.309 211.84,244.842C277.075,234.954 475.603,204.87 480.604,183.68C480.662,183.441 480.193,182.533 478.376,181.251C478.366,181.241 478.366,181.232 478.356,181.232C473.499,180.218 467.55,179.616 460.149,179.616C452.929,179.616 444.639,180.209 435.506,181.395C362.707,190.785 187.044,210.417 182.865,210.876L182.875,210.876C183.076,210.876 180.589,211.545 177.415,211.545C169.87,211.545 164.286,207.873 161.618,201.438C158.568,202.978 154.198,204.89 148.814,206.812C145.945,207.835 142.771,208.849 139.252,209.814C127.576,213.037 112.458,215.686 93.83,215.686C67.505,215.686 47.921,211.612 34.064,206.908C30.45,205.684 27.351,204.431 24.502,203.179C20.715,201.515 17.455,199.88 14.94,198.427L14.94,407.472C19.98,412.588 43.379,433.234 93.037,433.234C141.021,433.234 158.32,419.493 162.298,415.553C162.24,413.181 162.221,408.907 162.537,403.408C162.623,401.887 162.757,400.223 162.901,398.531C163.035,396.953 163.216,395.28 163.408,393.568C165.205,377.732 169.863,357.058 181.366,340.467C152.631,357.115 149.389,371.651 149.351,371.851C148.921,374.146 146.903,375.8 144.637,375.8C144.379,375.8 144.121,375.781 143.863,375.734C141.291,375.313 139.531,372.951 139.904,370.369C140.105,368.973 145.89,336.327 226.359,311.254C276.265,294.07 372.215,267.783 426.138,253.831C429.514,252.961 432.669,252.148 435.7,251.374C442.804,249.566 448.934,248.027 453.706,246.879C462.753,244.69 469.895,243.083 475.614,241.792C482.279,240.291 486.716,239.268 489.882,238.35C490.895,238.053 491.775,237.776 492.549,237.49C495.332,236.476 496.757,235.463 498.019,233.894C498.192,233.674 498.364,233.415 498.536,233.186C501.519,229.17 503.901,223.079 500.831,209.557C500.514,208.238 500.322,206.622 500.112,204.824Z" style="fill-rule:nonzero;"/>
        <path d="M177.626,128.496C195.173,125.57 382.015,79.431 383.899,78.962C388.461,78.274 400.786,75.08 403.559,68.491C405.032,64.971 403.722,60.344 399.638,54.74C387.465,37.996 376.727,36.054 369.707,36.054C365.424,36.054 361.302,36.848 357.324,37.613L354.722,38.101C341.842,40.444 166.064,82.452 164.285,82.872L158.385,84.287L158.385,78.225L158.385,72.507C143.888,77.221 124.505,80.922 99.251,80.922C95.129,80.922 90.874,80.826 86.437,80.616C49.449,78.885 27.742,70.968 14.938,62.906L14.938,168.476C16.277,169.843 19.289,172.483 24.5,175.39C27.111,176.844 30.238,178.364 34.062,179.837C45.585,184.274 62.979,188.204 88.454,188.204C112.284,188.204 128.425,185.478 139.25,182.266C143.075,181.128 146.231,179.942 148.812,178.785C154.11,176.404 157.055,174.185 158.374,172.99L158.374,142.228C158.097,140.841 158.183,139.11 159.082,137.351C161.284,133.048 167.175,130.236 177.626,128.496Z" style="fill-rule:nonzero;"/>
        <path d="M158.396,62.276C158.367,60.861 157.755,56.452 151.052,51.422C143.316,45.608 126.285,38.226 89.087,36.055C32.113,32.718 18.382,47.138 15.532,51.709C25.525,59.55 45.922,69.151 86.907,71.063C119.161,72.565 142.427,67.927 158.396,62.276Z" style="fill-rule:nonzero;"/>
    </g>
</svg>
