<?xml version="1.0" encoding="UTF-8" standalone="no"?>
<!DOCTYPE svg PUBLIC "-//W3C//DTD SVG 1.1//EN" "http://www.w3.org/Graphics/SVG/1.1/DTD/svg11.dtd">
<svg width="100%" height="100%" viewBox="0 0 64 53" version="1.1" xmlns="http://www.w3.org/2000/svg" xmlns:xlink="http://www.w3.org/1999/xlink" xml:space="preserve" style="fill-rule:evenodd;clip-rule:evenodd;stroke-linejoin:round;stroke-miterlimit:1.41421;">
    <g transform="matrix(0.371632,0,0,0.371632,-20.2312,-26.1585)">
        <path d="M171.23,116.995C172.88,114.395 175.727,110.348 179.697,107.974C181.892,112.234 182.307,117.275 182.422,120.415C191.271,115.313 203.389,103.172 187.607,78.418C161.964,90.511 166.242,107.665 171.23,116.995M201.935,133.036C201.751,123.005 204.667,106.293 225.82,104.68C228.013,132.204 215.855,138.658 208.242,140.036C209.221,137.218 210.642,132.602 210.612,128.05C207.166,128.746 203.91,131.32 201.935,133.036M109.86,116.995C114.848,107.665 119.126,90.511 93.483,78.418C77.701,103.172 89.819,115.313 98.668,120.415C98.783,117.275 99.198,112.234 101.393,107.974C105.363,110.348 108.21,114.395 109.86,116.995M79.155,133.036C79.339,123.005 76.423,106.293 55.271,104.68C53.077,132.204 65.236,138.658 72.848,140.036C71.869,137.218 70.448,132.602 70.478,128.05C73.924,128.746 77.18,131.32 79.155,133.036M134.725,112.755C127.529,105.252 119.002,90.018 140.545,70.854C162.088,90.018 153.561,105.252 146.365,112.755C145.448,109.774 143.752,105.045 140.545,101.595C137.338,105.045 135.642,109.774 134.725,112.755M182.988,129.866C193.189,135.228 199.5,142.429 199.5,150.191C199.5,157.955 193.189,165.155 182.988,170.518C172.184,176.198 157.182,179.712 140.545,179.712C123.908,179.712 108.906,176.198 98.102,170.518C87.901,165.155 81.591,157.955 81.591,150.191C81.591,142.429 87.901,135.228 98.102,129.866C108.906,124.186 123.908,120.671 140.545,120.671C157.182,120.671 172.184,124.186 182.988,129.866M199.5,165.644C196.125,169.566 191.495,173.074 185.887,176.023C184.729,176.632 183.525,177.218 182.282,177.78C183.095,178.994 183.47,180.55 183.234,182.247C182.697,186.12 179.19,189.261 175.399,189.261C171.622,189.261 168.992,186.144 169.502,182.291C162.591,184.145 154.972,185.359 146.928,185.781C147.237,186.582 147.408,187.452 147.408,188.366C147.408,192.238 144.335,195.379 140.545,195.379C136.755,195.379 133.682,192.238 133.682,188.366C133.682,187.452 133.853,186.582 134.163,185.781C126.118,185.359 118.498,184.145 111.588,182.291C112.098,186.144 109.468,189.261 105.691,189.261C101.9,189.261 98.393,186.12 97.856,182.247C97.62,180.55 97.995,178.994 98.808,177.78C97.565,177.218 96.361,176.632 95.203,176.023C89.595,173.074 84.965,169.566 81.591,165.644L81.591,180.738L81.587,180.738C81.98,187.719 86.17,193.078 91.764,197.165C97.734,201.525 105.333,204.48 111.858,206.454L111.858,206.457C120.82,208.859 129.956,210.107 139.083,210.224C148.317,210.341 157.601,209.301 166.738,207.126L166.738,207.127C172.434,205.589 178.153,203.641 183.288,200.904C188.289,198.24 192.79,194.807 196.249,190.253C197.385,188.485 198.169,187.053 198.661,185.625C199.143,184.233 199.4,182.716 199.505,180.738L199.5,180.738L199.5,165.644Z"/>
    </g>
</svg>
