<?xml version="1.0" encoding="UTF-8" standalone="no"?>
<!DOCTYPE svg PUBLIC "-//W3C//DTD SVG 1.1//EN" "http://www.w3.org/Graphics/SVG/1.1/DTD/svg11.dtd">
<svg width="100%" height="100%" viewBox="0 0 60 64" version="1.1" xmlns="http://www.w3.org/2000/svg" xmlns:xlink="http://www.w3.org/1999/xlink" xml:space="preserve" style="fill-rule:evenodd;clip-rule:evenodd;stroke-linejoin:round;stroke-miterlimit:1.41421;">
    <g transform="matrix(0.435298,0,0,0.435298,-257.137,-142.118)">
        <path d="M719.064,430.386C716.316,430.386 715.038,436.889 714.827,438.833C714.641,440.554 714.432,447.345 717.294,447.345C720.042,447.345 721.32,440.841 721.531,438.897C721.717,437.176 721.926,430.386 719.064,430.386M590.958,368.622L591.177,359.311L673.722,360.734L673.962,371.434C646.297,370.491 618.624,369.473 590.958,368.622M676.326,371.513L676.084,360.749L724.014,359.879L723.963,363.772L698.576,364.637L683.082,370.928L676.326,371.513ZM661.132,358.064C656.337,358.099 654.33,357.716 649.788,355.998L607.892,340.132C605.559,339.252 606.424,338.899 608.085,338.848L613.552,338.68L651.545,353.069C656.088,354.787 658.094,355.17 662.89,355.134L711.185,354.771L713.01,355.646C717.046,357.582 716.396,357.645 712.346,357.677L661.132,358.064ZM720.436,357.58L723.386,357.526C716.82,351.324 711.486,346.624 703.849,341.662C696.677,337.002 688.705,332.814 680.698,329.759C675.392,327.735 669.997,326.482 664.284,326.792L611.684,329.649C607.989,329.849 607.461,333.757 606.588,336.596C607.072,336.531 607.562,336.5 608.016,336.486L661.351,334.85C668.858,334.621 675.746,335.157 682.627,338.448L693.03,343.42L720.436,357.58ZM711.61,423.971C715.658,417.846 721.806,415.453 725.632,422.878C729.977,431.318 727.763,445.246 722.763,452.803C718.637,459.048 712.503,461.218 708.741,453.898C704.413,445.485 706.586,431.572 711.61,423.971M714.677,417.448C712.631,418.754 710.93,420.715 709.639,422.669C704.136,430.992 701.913,445.794 706.64,454.98C707.005,455.688 707.424,456.381 707.904,457.029C704.856,456.311 703.162,452.801 702.291,450.066C699.681,441.881 701.637,430.217 706.325,423.127C708.036,420.537 710.904,417.437 714.264,417.384L714.677,417.448ZM701.937,454.966C701.123,453.668 700.504,452.237 700.04,450.783C697.213,441.91 699.269,429.516 704.355,421.822C705.804,419.63 707.726,417.482 710.062,416.196L714.059,366.473L699.081,366.982L683.655,373.247L676.79,373.895L656.378,373.199L655.562,390.951L646.543,372.865L624.061,372.102L623.246,389.796L614.258,371.77L609.167,371.597L612.875,449.729C613.065,455.05 613.817,456.816 619.048,458.466L661.042,471.726C671.652,475.079 674.129,472.602 683.251,467.204C689.296,463.617 696.53,459.525 701.937,454.966"/>
    </g>
</svg>
