<?xml version="1.0" encoding="UTF-8" standalone="no"?>
<!DOCTYPE svg PUBLIC "-//W3C//DTD SVG 1.1//EN" "http://www.w3.org/Graphics/SVG/1.1/DTD/svg11.dtd">
<svg width="100%" height="100%" viewBox="0 0 64 46" version="1.1" xmlns="http://www.w3.org/2000/svg" xmlns:xlink="http://www.w3.org/1999/xlink" xml:space="preserve" style="fill-rule:evenodd;clip-rule:evenodd;stroke-linejoin:round;stroke-miterlimit:1.41421;">
    <g transform="matrix(0.140709,0,0,0.140709,-4.01934,-13.0253)">
        <path d="M70.236,282.716L91.955,282.716C91.955,282.132 91.955,281.579 91.955,281.026L91.955,180.838C91.955,175.267 96.409,170.854 102.533,170.854C108.114,170.854 112.547,175.267 112.547,180.838L112.547,282.727L460.451,282.727C472.135,282.727 486.614,293.858 482.129,304.446L455.434,363.47C450.406,374.57 445.409,385.148 433.725,385.148L96.952,385.148C84.695,385.148 80.261,374.57 75.222,363.47L48.527,304.436C43.55,293.848 58.009,282.717 70.236,282.717L70.236,282.716ZM102.533,122.398C113.654,122.398 123.095,131.87 123.095,143.533C123.095,154.694 113.653,164.166 102.533,164.166C90.839,164.166 81.377,154.704 81.377,143.533C81.377,131.87 90.839,122.397 102.533,122.397L102.533,122.398ZM164.874,312.76C151.5,312.76 140.943,323.338 140.943,336.701C140.943,350.064 151.501,361.226 164.874,361.226C178.207,361.226 189.368,350.065 189.368,336.701C189.368,323.337 178.207,312.76 164.874,312.76ZM265.042,312.76C251.699,312.76 241.111,323.338 241.111,336.701C241.111,350.064 251.699,361.226 265.042,361.226C278.456,361.226 289.556,350.065 289.556,336.701C289.556,323.337 278.445,312.76 265.042,312.76ZM365.23,312.76C351.867,312.76 341.33,323.338 341.33,336.701C341.33,350.064 351.867,361.226 365.23,361.226C378.593,361.226 389.735,350.065 389.735,336.701C389.735,323.337 378.594,312.76 365.23,312.76ZM91.955,400.722L438.732,400.722L438.732,419.083L91.955,419.083L91.955,400.722L91.955,400.722ZM29.041,142.992C29.041,163.032 37.95,181.402 52.449,193.086L52.449,183.655C42.414,173.077 36.301,158.588 36.301,142.992C36.301,127.407 42.415,112.937 52.449,102.37L52.449,92.919C37.949,105.135 29.04,122.942 29.04,142.992L29.041,142.992ZM47.954,142.992C47.954,157.461 54.641,170.845 65.239,179.712L65.239,172.482C58.009,164.7 53.524,154.695 53.524,142.991C53.524,131.871 58.009,121.302 65.239,113.5L65.239,106.26C54.631,115.179 47.954,128.532 47.954,142.991L47.954,142.992ZM60.785,142.992C60.785,131.872 65.772,121.867 73.555,115.692L73.555,120.73C68.036,126.854 64.657,134.646 64.657,142.981C64.657,151.88 68.046,159.683 73.555,165.232L73.555,170.833C65.773,164.167 60.785,154.111 60.785,142.99L60.785,142.992ZM170.404,142.992C170.404,122.942 161.516,105.134 147.057,92.908L147.057,102.359C157.051,112.926 163.728,127.396 163.728,142.981C163.728,158.576 157.042,173.066 147.057,183.644L147.057,193.075C161.516,181.412 170.404,163.031 170.404,142.991L170.404,142.992ZM151.49,142.992C151.49,128.533 144.804,115.17 134.235,106.261L134.235,113.5C142.027,121.303 146.482,131.861 146.482,142.991C146.482,154.695 142.028,164.71 134.235,172.482L134.235,179.712C144.813,170.855 151.49,157.461 151.49,142.992L151.49,142.992ZM138.69,142.992C138.69,154.112 133.693,164.158 125.89,170.845L125.89,165.244C131.481,159.694 134.829,151.881 134.829,142.993C134.829,134.658 131.48,126.865 125.89,120.742L125.89,115.704C133.693,122.401 138.69,131.873 138.69,142.993L138.69,142.992Z" style="fill-rule:nonzero;"/>
    </g>
</svg>
