<?xml version="1.0" encoding="UTF-8" standalone="no"?>
<!DOCTYPE svg PUBLIC "-//W3C//DTD SVG 1.1//EN" "http://www.w3.org/Graphics/SVG/1.1/DTD/svg11.dtd">
<svg width="100%" height="100%" viewBox="0 0 97 64" version="1.1" xmlns="http://www.w3.org/2000/svg" xmlns:xlink="http://www.w3.org/1999/xlink" xml:space="preserve" style="fill-rule:evenodd;clip-rule:evenodd;stroke-linejoin:round;stroke-miterlimit:1.41421;">
    <g transform="matrix(0.522724,0,0,0.522724,-163.981,-41.4654)">
        <path d="M416.398,79.767L438.101,79.767L438.101,201.32L416.398,201.32L416.398,79.767ZM388.951,79.767L410.654,79.767L410.654,201.32L388.951,201.32L388.951,79.767ZM361.502,79.767L383.206,79.767L383.206,201.32L361.502,201.32L361.502,79.767ZM334.055,79.767L355.757,79.767L355.757,201.32L334.055,201.32L334.055,79.767ZM483.737,96.932L496.218,96.932L496.218,95.187L483.737,95.187L483.737,96.932ZM482.605,93.919L497.348,93.919L497.348,105.154L482.605,105.154L482.605,93.919ZM486.465,84.787C487.38,81.437 492.571,81.437 493.485,84.787L493.856,91.473L486.095,91.473L486.465,84.787ZM468.741,85.593L475.505,85.593L475.505,89.076L479.225,89.076L479.225,110.332L475.505,110.332L475.505,113.816L468.741,113.816L468.741,85.593ZM330.127,96.932L315.022,96.932L315.022,95.187L330.127,95.187L330.127,96.932ZM330.779,93.919L314.37,93.919L314.37,105.154L330.779,105.154L330.779,93.919ZM443.846,79.767L465.55,79.767L465.55,201.32L443.846,201.32L443.846,79.767Z"/>
    </g>
</svg>
